<svg viewBox="0 0 330 200" xmlns="http://www.w3.org/2000/svg"><g><g><g><g><g><line x1="30.918001174926758" y1="176.90199947357178" x2="25.918001174926758" y2="176.90199947357178" style="visibility: inherit;" fill="rgb(0, 0, 0)" stroke="rgb(204, 204, 204)" stroke-width="1px"></line><line x1="30.918001174926758" y1="157.246221754286" x2="25.918001174926758" y2="157.246221754286" style="visibility: inherit;" fill="rgb(0, 0, 0)" stroke="rgb(204, 204, 204)" stroke-width="1px"></line><line x1="30.918001174926758" y1="137.59044403500027" x2="25.918001174926758" y2="137.59044403500027" style="visibility: inherit;" fill="rgb(0, 0, 0)" stroke="rgb(204, 204, 204)" stroke-width="1px"></line><line x1="30.918001174926758" y1="117.93466631571454" x2="25.918001174926758" y2="117.93466631571454" style="visibility: inherit;" fill="rgb(0, 0, 0)" stroke="rgb(204, 204, 204)" stroke-width="1px"></line><line x1="30.918001174926758" y1="98.27888859642877" x2="25.918001174926758" y2="98.27888859642877" style="visibility: inherit;" fill="rgb(0, 0, 0)" stroke="rgb(204, 204, 204)" stroke-width="1px"></line><line x1="30.918001174926758" y1="78.623110877143" x2="25.918001174926758" y2="78.623110877143" style="visibility: inherit;" fill="rgb(0, 0, 0)" stroke="rgb(204, 204, 204)" stroke-width="1px"></line><line x1="30.918001174926758" y1="58.96733315785727" x2="25.918001174926758" y2="58.96733315785727" style="visibility: inherit;" fill="rgb(0, 0, 0)" stroke="rgb(204, 204, 204)" stroke-width="1px"></line><line x1="30.918001174926758" y1="39.3115554385715" x2="25.918001174926758" y2="39.3115554385715" style="visibility: inherit;" fill="rgb(0, 0, 0)" stroke="rgb(204, 204, 204)" stroke-width="1px"></line><line x1="30.918001174926758" y1="19.655777719285762" x2="25.918001174926758" y2="19.655777719285762" style="visibility: inherit;" fill="rgb(0, 0, 0)" stroke="rgb(204, 204, 204)" stroke-width="1px"></line><line x1="30.918001174926758" y1="0" x2="25.918001174926758" y2="0" style="visibility: inherit;" fill="rgb(0, 0, 0)" stroke="rgb(204, 204, 204)" stroke-width="1px"></line></g><g transform="translate(20.918001174926758, 0)"><text style="text-anchor: end; visibility: hidden; font-family: Roboto, sans-serif; font-size: 12px; font-weight: 200;" x="0" y="176.90199947357178" dx="0em" dy="0.3em" fill="rgb(255, 255, 255)" stroke="none" stroke-width="1px">15</text><text style="text-anchor: end; visibility: inherit; font-family: Roboto, sans-serif; font-size: 12px; font-weight: 200;" x="0" y="157.246221754286" dx="0em" dy="0.3em" fill="rgb(255, 255, 255)" stroke="none" stroke-width="1px">20</text><text style="text-anchor: end; visibility: hidden; font-family: Roboto, sans-serif; font-size: 12px; font-weight: 200;" x="0" y="137.59044403500027" dx="0em" dy="0.3em" fill="rgb(255, 255, 255)" stroke="none" stroke-width="1px">25</text><text style="text-anchor: end; visibility: inherit; font-family: Roboto, sans-serif; font-size: 12px; font-weight: 200;" x="0" y="117.93466631571454" dx="0em" dy="0.3em" fill="rgb(255, 255, 255)" stroke="none" stroke-width="1px">30</text><text style="text-anchor: end; visibility: hidden; font-family: Roboto, sans-serif; font-size: 12px; font-weight: 200;" x="0" y="98.27888859642877" dx="0em" dy="0.3em" fill="rgb(255, 255, 255)" stroke="none" stroke-width="1px">35</text><text style="text-anchor: end; visibility: inherit; font-family: Roboto, sans-serif; font-size: 12px; font-weight: 200;" x="0" y="78.623110877143" dx="0em" dy="0.3em" fill="rgb(255, 255, 255)" stroke="none" stroke-width="1px">40</text><text style="text-anchor: end; visibility: hidden; font-family: Roboto, sans-serif; font-size: 12px; font-weight: 200;" x="0" y="58.96733315785727" dx="0em" dy="0.3em" fill="rgb(255, 255, 255)" stroke="none" stroke-width="1px">45</text><text style="text-anchor: end; visibility: inherit; font-family: Roboto, sans-serif; font-size: 12px; font-weight: 200;" x="0" y="39.3115554385715" dx="0em" dy="0.3em" fill="rgb(255, 255, 255)" stroke="none" stroke-width="1px">50</text><text style="text-anchor: end; visibility: hidden; font-family: Roboto, sans-serif; font-size: 12px; font-weight: 200;" x="0" y="19.655777719285762" dx="0em" dy="0.3em" fill="rgb(255, 255, 255)" stroke="none" stroke-width="1px">55</text><text style="text-anchor: end; visibility: hidden; font-family: Roboto, sans-serif; font-size: 12px; font-weight: 200;" x="0" y="0" dx="0em" dy="0.3em" fill="rgb(255, 255, 255)" stroke="none" stroke-width="1px">60</text></g><line x1="30.918001174926758" y1="0" x2="30.918001174926758" y2="176.90199947357178" fill="rgb(0, 0, 0)" stroke="rgb(204, 204, 204)" stroke-width="1px"></line></g></g><g transform="translate(30, 0)" clip-path="url(#clip_0)"><clipPath id="clip_0"><rect width="299" height="176"></rect></clipPath><g><g><g><line x1="0" y1="0" x2="0" y2="176.90199947357178" fill="rgb(0, 0, 0)" stroke="rgb(189, 189, 189)" stroke-width="1px" opacity="0.25"></line><line x1="27.189272620461203" y1="0" x2="27.189272620461203" y2="176.90199947357178" fill="rgb(0, 0, 0)" stroke="rgb(189, 189, 189)" stroke-width="1px" opacity="0.25"></line><line x1="54.378545240922406" y1="0" x2="54.378545240922406" y2="176.90199947357178" fill="rgb(0, 0, 0)" stroke="rgb(189, 189, 189)" stroke-width="1px" opacity="0.25"></line><line x1="81.5678178613836" y1="0" x2="81.5678178613836" y2="176.90199947357178" fill="rgb(0, 0, 0)" stroke="rgb(189, 189, 189)" stroke-width="1px" opacity="0.25"></line><line x1="108.75709048184481" y1="0" x2="108.75709048184481" y2="176.90199947357178" fill="rgb(0, 0, 0)" stroke="rgb(189, 189, 189)" stroke-width="1px" opacity="0.25"></line><line x1="135.946363102306" y1="0" x2="135.946363102306" y2="176.90199947357178" fill="rgb(0, 0, 0)" stroke="rgb(189, 189, 189)" stroke-width="1px" opacity="0.25"></line><line x1="163.1356357227672" y1="0" x2="163.1356357227672" y2="176.90199947357178" fill="rgb(0, 0, 0)" stroke="rgb(189, 189, 189)" stroke-width="1px" opacity="0.25"></line><line x1="190.32490834322843" y1="0" x2="190.32490834322843" y2="176.90199947357178" fill="rgb(0, 0, 0)" stroke="rgb(189, 189, 189)" stroke-width="1px" opacity="0.25"></line><line x1="217.51418096368963" y1="0" x2="217.51418096368963" y2="176.90199947357178" fill="rgb(0, 0, 0)" stroke="rgb(189, 189, 189)" stroke-width="1px" opacity="0.25"></line><line x1="244.70345358415085" y1="0" x2="244.70345358415085" y2="176.90199947357178" fill="rgb(0, 0, 0)" stroke="rgb(189, 189, 189)" stroke-width="1px" opacity="0.25"></line><line x1="271.892726204612" y1="0" x2="271.892726204612" y2="176.90199947357178" fill="rgb(0, 0, 0)" stroke="rgb(189, 189, 189)" stroke-width="1px" opacity="0.25"></line><line x1="299.08199882507324" y1="0" x2="299.08199882507324" y2="176.90199947357178" fill="rgb(0, 0, 0)" stroke="rgb(189, 189, 189)" stroke-width="1px" opacity="0.25"></line></g><g><line x1="0" y1="176.90199947357178" x2="299.08199882507324" y2="176.90199947357178" fill="rgb(0, 0, 0)" stroke="rgb(189, 189, 189)" stroke-width="1px" opacity="0.25"></line><line x1="0" y1="157.246221754286" x2="299.08199882507324" y2="157.246221754286" fill="rgb(0, 0, 0)" stroke="rgb(189, 189, 189)" stroke-width="1px" opacity="0.25"></line><line x1="0" y1="137.59044403500027" x2="299.08199882507324" y2="137.59044403500027" fill="rgb(0, 0, 0)" stroke="rgb(189, 189, 189)" stroke-width="1px" opacity="0.25"></line><line x1="0" y1="117.93466631571454" x2="299.08199882507324" y2="117.93466631571454" fill="rgb(0, 0, 0)" stroke="rgb(189, 189, 189)" stroke-width="1px" opacity="0.25"></line><line x1="0" y1="98.27888859642877" x2="299.08199882507324" y2="98.27888859642877" fill="rgb(0, 0, 0)" stroke="rgb(189, 189, 189)" stroke-width="1px" opacity="0.25"></line><line x1="0" y1="78.623110877143" x2="299.08199882507324" y2="78.623110877143" fill="rgb(0, 0, 0)" stroke="rgb(189, 189, 189)" stroke-width="1px" opacity="0.25"></line><line x1="0" y1="58.96733315785727" x2="299.08199882507324" y2="58.96733315785727" fill="rgb(0, 0, 0)" stroke="rgb(189, 189, 189)" stroke-width="1px" opacity="0.25"></line><line x1="0" y1="39.3115554385715" x2="299.08199882507324" y2="39.3115554385715" fill="rgb(0, 0, 0)" stroke="rgb(189, 189, 189)" stroke-width="1px" opacity="0.25"></line><line x1="0" y1="19.655777719285762" x2="299.08199882507324" y2="19.655777719285762" fill="rgb(0, 0, 0)" stroke="rgb(189, 189, 189)" stroke-width="1px" opacity="0.25"></line><line x1="0" y1="0" x2="299.08199882507324" y2="0" fill="rgb(0, 0, 0)" stroke="rgb(189, 189, 189)" stroke-width="1px" opacity="0.25"></line></g></g></g><g><g><line x1="0" y1="235.86933263142902" x2="299.08199882507324" y2="235.86933263142902" fill="rgb(0, 0, 0)" stroke="rgb(153, 153, 153)" stroke-width="1.5px"></line></g></g><g><g><line x1="27.189272620461203" y1="0" x2="27.189272620461203" y2="176.90199947357178" fill="rgb(0, 0, 0)" stroke="rgb(153, 153, 153)" stroke-width="1.5px"></line></g></g><g><g><g><g><g><path style="fill: none;" stroke="rgb(204, 51, 17)" stroke-width="2px" d="M32.62712714455344,181.443519785788L35.34605440659956,171.91087102136618L38.06498166864568,166.06276860162538L40.7839089306918,157.962085561509L43.502836192737924,151.4354042186654L46.221763454784046,143.70462347904646L48.94069071683017,138.83499915921644L51.65961797887629,131.92449735121252L54.378545240922406,128.30475179815195L57.09747250296853,126.27205663872175L59.81639976501465,122.11860960700903L62.53532702706077,116.24563791626974L65.25425428910688,115.26354621318713L67.973181551153,110.07938408158587L70.69210881319913,111.60961031906331L73.41103607524525,106.47446291448462L76.12996333729136,102.28598533874214L78.84889059933748,100.32527313549805L81.5678178613836,106.38729067705566L84.28674512342972,103.1603431211736L87.00567238547585,100.237491995823L89.72459964752197,98.8078708196176L92.44352690956809,104.33146595064407L95.16245417161421,102.31961593243217L97.88138143366034,104.03580476117762L100.60030869570646,97.75996375244063L103.31923595775258,95.80257104775228L106.03816321979869,102.36897343237563L108.75709048184481,102.92139874501505L111.47601774389094,101.18300685139441L114.19494500593706,101.5384006578301L116.91387226798318,100.78575782779431L119.6327995300293,96.48930697109078L122.35172679207543,98.49005904155231L125.07065405412153,97.57496524165481L127.78958131616766,94.80507663839765L130.50850857821376,96.97799634887045L133.2274358402599,92.62772846316932L135.946363102306,94.03044145884166L138.66529036435213,94.68637796528502L141.38421762639825,92.98524050388606L144.10314488844438,98.41108977216614L146.8220721504905,94.04938186846809L149.54099941253662,95.07059128397987L152.25992667458272,93.65190230029916L154.97885393662887,93.61920892273766L157.69778119867496,98.38771868961719L160.4167084607211,94.84606816632859L163.1356357227672,94.57745363619122L165.85456298481336,92.89570780274522L168.57349024685945,92.39091918803884L171.2924175089056,87.32827601860869L174.0113447709517,93.50640341072801L176.73027203299785,100.93853296613682L179.44919929504394,94.35544130138781L182.1681265570901,90.87850875849745L184.88705381913618,88.19272826846164L187.6059810811823,90.97460144159191L190.32490834322843,94.06430061809094L193.04383560527455,93.16384260268526L195.76276286732067,94.75179714829807L198.4816901293668,85.13389793700279L201.20061739141292,86.57753825917972L203.919544653459,81.88925467846529L206.63847191550516,87.095151174037L209.35739917755126,87.25843425195235L212.07632643959738,87.09078121677379L214.7952537016435,85.34474163617877L217.51418096368963,80.71582312183361L220.23310822573575,83.50262660845647L222.95203548778187,84.40523597830651L225.670962749828,84.67986500633313L228.38989001187412,85.20643657277147L231.10881727392024,88.36481177121402L233.82774453596636,85.85371257844433L236.54667179801248,87.33986135922194L239.2655990600586,84.70478571510877L241.9845263221047,90.6498370678569L244.70345358415085,92.4881454963914L247.42238084619694,89.55214220912191L250.14130810824307,82.7336771572164L252.8602353702892,94.74568213992474L255.5791626323353,91.3712254614927L258.29808989438146,95.6160148672908L261.0170171564275,98.20082905674401L263.7359444184737,98.77913216382522L266.4548716805198,100.22013588384903L269.17379894256595,97.84556290375964" fill="none"></path></g><g><path style="fill: none;" stroke="rgb(0, 119, 187)" stroke-width="2px" d="M35.34605440659956,178.2453034607966L38.06498166864568,170.71812210799033L40.7839089306918,162.6320091467752L43.502836192737924,155.53646450089957L46.221763454784046,148.25561054480272L48.94069071683017,141.27824032788482L51.65961797887629,135.45590639058958L54.378545240922406,129.2590133316895L57.09747250296853,124.19524285189388L59.81639976501465,119.20221654963316L62.53532702706077,114.16420209755066L65.25425428910688,110.34782765597512L67.973181551153,106.67939968890815L70.69210881319913,103.29569615416229L73.41103607524525,99.04837532759556L76.12996333729136,96.76455032290119L78.84889059933748,94.0101374348411L81.5678178613836,90.81961625022727L84.28674512342972,87.51738690533547L87.00567238547585,85.50838751148817L89.72459964752197,82.49564312492032L92.44352690956809,80.1782405443302L95.16245417161421,78.12626755395856L97.88138143366034,76.8239796780865L100.60030869570646,75.56515309775021L103.31923595775258,73.02877980965954L106.03816321979869,71.41625453870564L108.75709048184481,69.39159283901452L111.47601774389094,67.23869768008298L114.19494500593706,65.82460270829796L116.91387226798318,63.93176368652721L119.6327995300293,62.44524175111159L122.35172679207543,61.04964490911435L125.07065405412153,59.394929272297674L127.78958131616766,58.38661387170204L130.50850857821376,56.83106743867536L133.2274358402599,55.20934200686974L135.946363102306,53.649335078282995L138.66529036435213,52.37823386919774L141.38421762639825,51.563378317802695L144.10314488844438,49.544093716255105L146.8220721504905,48.877539029917585L149.54099941253662,47.072660797796836L152.25992667458272,46.28201263378455L154.97885393662887,45.19730852216442L157.69778119867496,44.57032186874827L160.4167084607211,43.27281013004997L163.1356357227672,42.191817959656326L165.85456298481336,41.45545989219502L168.57349024685945,39.6304911554198L171.2924175089056,37.88661852170501L174.0113447709517,37.490288431798206L176.73027203299785,36.4972188841889L179.44919929504394,35.28429401680434L182.1681265570901,33.5343222328421L184.88705381913618,32.70809133249744L187.6059810811823,32.058418207251364L190.32490834322843,30.863447051580987L193.04383560527455,30.00554272164314L195.76276286732067,28.74064704483385L198.4816901293668,28.34566277385439L201.20061739141292,27.111555432823693L203.919544653459,26.20433907604395L206.63847191550516,24.23231841233479L209.35739917755126,24.01048385996787L212.07632643959738,21.83735987439355L214.7952537016435,21.155675124921L217.51418096368963,19.415796070296015L220.23310822573575,18.970593323742097L222.95203548778187,18.136044620300865L225.670962749828,16.814140083808297L228.38989001187412,17.30437239625519L231.10881727392024,16.076965139250575L233.82774453596636,14.316740982475054L236.54667179801248,14.301986943048234L239.2655990600586,13.637496716727613L241.9845263221047,12.0497384034362L244.70345358415085,11.281894754985299L247.42238084619694,11.236944697321176L250.14130810824307,11.457255849794954L252.8602353702892,10.892486035113471L255.5791626323353,9.18967683955859L258.29808989438146,8.642072816833116L261.0170171564275,7.9820072521909715L263.7359444184737,7.346862820133161L266.4548716805198,6.479158110022689L269.17379894256595,6.086280184153756" fill="none"></path></g></g></g></g><g opacity="0.2"><g><g><g><path style="fill: none;" stroke="rgb(204, 51, 17)" stroke-width="2px" d="M32.62712714455344,178.27790541353863L35.34605440659956,166.79893092555236L38.06498166864568,162.82846292648654L40.7839089306918,153.4330035760549L43.502836192737924,147.77213749343701L46.221763454784046,139.35946702896965L48.94069071683017,136.09660822749157L51.65961797887629,128.03773486373393L54.378545240922406,126.26871936784869L57.09747250296853,125.12868066104974L59.81639976501465,119.7823067220171L62.53532702706077,112.94209697547575L65.25425428910688,114.71111996944512L67.973181551153,107.16329352723187L70.69210881319913,112.47036250913999L73.41103607524525,103.5859425821686L76.12996333729136,99.92996672668798L78.84889059933748,99.22237252526855L81.5678178613836,109.79717553962368L84.28674512342972,101.3451851218635L87.00567238547585,98.59338823809813L89.72459964752197,98.00370890805223L92.44352690956809,107.4384882117767L95.16245417161421,101.18795029719712L97.88138143366034,105.00116097734411L100.60030869570646,94.22980318502977L103.31923595775258,94.70153765136547L106.03816321979869,106.06257477372571L108.75709048184481,103.23213798337474L111.47601774389094,100.20516141123284L114.19494500593706,101.7383096739502L116.91387226798318,100.36239623589921L119.6327995300293,94.07255336419507L122.35172679207543,99.61548208118694L125.07065405412153,97.06022497921248L127.78958131616766,93.24701429906548L130.50850857821376,98.20026368601143L133.2274358402599,90.18070277746244L135.946363102306,94.81946751890735L138.66529036435213,95.05534225015936L141.38421762639825,92.02835068184916L144.10314488844438,101.46312998557363L146.8220721504905,91.59592117263793L149.54099941253662,95.64502158020525L152.25992667458272,92.85388974697878L154.97885393662887,93.60081889785934L157.69778119867496,101.07000543348695L160.4167084607211,92.85388974697878L163.1356357227672,94.42635796298896L165.85456298481336,91.94972577143182L168.57349024685945,92.10697559226651L171.2924175089056,84.48053923580423L174.0113447709517,96.9816000687951L176.73027203299785,105.11910584105425L179.44919929504394,90.65245223996646L182.1681265570901,88.92273420312162L184.88705381913618,86.68197674281652L187.6059810811823,92.53940510147771L190.32490834322843,95.80225640487163L193.04383560527455,92.65733496901959L195.76276286732067,95.64502158020525L198.4816901293668,79.72382963064916L201.20061739141292,87.38958594040426L203.919544653459,79.25209516431343L206.63847191550516,90.02346795279607L209.35739917755126,87.35028098327973L212.07632643959738,86.99647638448587L214.7952537016435,84.36259437209407L217.51418096368963,78.11205645751446L220.23310822573575,85.07020356968181L222.95203548778187,84.91295374884714L225.670962749828,84.83434383459809L228.38989001187412,85.50263307889301L231.10881727392024,90.14139782033794L233.82774453596636,84.44121928251141L236.54667179801248,88.17582004840935L239.2655990600586,83.22255566529509L241.9845263221047,93.99392845377776L244.70345358415085,93.522193987442L247.42238084619694,87.90064036003281L250.14130810824307,78.89829056551955L252.8602353702892,101.50243494269816L255.5791626323353,89.4730935798747L258.29808989438146,98.00370890805223L261.0170171564275,99.65478703831144L263.7359444184737,99.10442766155836L266.4548716805198,101.03070047636243L269.17379894256595,96.5098656024594" fill="none"></path></g><g><path style="fill: none;" stroke="rgb(0, 119, 187)" stroke-width="2px" d="M32.62712714455344,183.17612261185133L35.34605440659956,172.9236734823147L38.06498166864568,166.5551982021091L40.7839089306918,158.1110732746243L43.502836192737924,151.5539087067349L46.221763454784046,144.16333958344046L48.94069071683017,137.35457680183242L51.65961797887629,132.18117616610107L54.378545240922406,125.7733884306868L57.09747250296853,121.34690944775187L59.81639976501465,116.39365256272177L62.53532702706077,111.33032380234104L65.25425428910688,108.20111835087147L67.973181551153,104.61590941361695L70.69210881319913,101.39236306734756L73.41103607524525,96.65925743110282L76.12996333729136,95.47989877101105L78.84889059933748,92.4607801910604L81.5678178613836,89.024948086281L84.28674512342972,85.6598828997277L87.00567238547585,84.37832535264485L89.72459964752197,80.80097440758158L92.44352690956809,78.87470159277751L95.16245417161421,76.9720327468838L97.88138143366034,76.09144274791058L100.60030869570646,74.85706314631179L103.31923595775258,71.60206983510912L106.03816321979869,70.50920907379421L108.75709048184481,68.25272063293829L111.47601774389094,66.02769415318397L114.19494500593706,65.0291742866689L116.91387226798318,62.86704173678114L119.6327995300293,61.60907316244032L122.35172679207543,60.26462168549091L125.07065405412153,58.464151726588256L127.78958131616766,57.819436458867045L130.50850857821376,55.95607257009785L133.2274358402599,54.297121451479086L135.946363102306,52.77183118095297L138.66529036435213,51.66323943908728L141.38421762639825,51.10502207014295L144.10314488844438,48.40824612788461L146.8220721504905,48.502602018852734L149.54099941253662,46.05741679222888L152.25992667458272,45.83727304152765L154.97885393662887,44.58716245937806L157.69778119867496,44.2176418762017L160.4167084607211,42.54295977703214L163.1356357227672,41.58375986380989L165.85456298481336,41.04125847924806L168.57349024685945,38.60394624098376L171.2924175089056,36.90569016524048L174.0113447709517,37.26735275622559L176.73027203299785,35.93861726365867L179.44919929504394,34.6020237789005L182.1681265570901,32.54996310436334L184.88705381913618,32.243336451053544L187.6059810811823,31.69297707430047L190.32490834322843,30.191275776516388L193.04383560527455,29.52297153605315L195.76276286732067,28.029143226628605L198.4816901293668,28.123484121428444L201.20061739141292,26.4173700534939L203.919544653459,25.69402987535537L206.63847191550516,23.12305678899841L209.35739917755126,23.88570192426147L212.07632643959738,20.614977632508012L214.7952537016435,20.772227453342683L217.51418096368963,18.437114102069444L220.23310822573575,18.720166778805524L222.95203548778187,17.666610974615143L225.670962749828,16.07056878203124L228.38989001187412,17.58012807200657L231.10881727392024,15.38654855718551L233.82774453596636,13.32661489428881L236.54667179801248,14.293687795870621L239.2655990600586,13.263720964422252L241.9845263221047,11.156624352209802L244.70345358415085,10.84998270273169L247.42238084619694,11.211660289885113L250.14130810824307,11.581180873061468L252.8602353702892,10.574803014355151L255.5791626323353,8.231846667058962L258.29808989438146,8.334045554050025L261.0170171564275,7.610720372079807L263.7359444184737,6.989594077100632L266.4548716805198,5.991074210585542L269.17379894256595,5.865286350852446" fill="none"></path></g></g></g></g></g></g><g transform="translate(30, 176)" clip-path="url(#clip_1)"><clipPath id="clip_1"><rect width="299" height="23"></rect></clipPath><g><g><line x1="0" y1="0" x2="0" y2="5" style="visibility: inherit;" fill="rgb(0, 0, 0)" stroke="rgb(204, 204, 204)" stroke-width="1px"></line><line x1="27.189272620461203" y1="0" x2="27.189272620461203" y2="5" style="visibility: inherit;" fill="rgb(0, 0, 0)" stroke="rgb(204, 204, 204)" stroke-width="1px"></line><line x1="54.378545240922406" y1="0" x2="54.378545240922406" y2="5" style="visibility: inherit;" fill="rgb(0, 0, 0)" stroke="rgb(204, 204, 204)" stroke-width="1px"></line><line x1="81.5678178613836" y1="0" x2="81.5678178613836" y2="5" style="visibility: inherit;" fill="rgb(0, 0, 0)" stroke="rgb(204, 204, 204)" stroke-width="1px"></line><line x1="108.75709048184481" y1="0" x2="108.75709048184481" y2="5" style="visibility: inherit;" fill="rgb(0, 0, 0)" stroke="rgb(204, 204, 204)" stroke-width="1px"></line><line x1="135.946363102306" y1="0" x2="135.946363102306" y2="5" style="visibility: inherit;" fill="rgb(0, 0, 0)" stroke="rgb(204, 204, 204)" stroke-width="1px"></line><line x1="163.1356357227672" y1="0" x2="163.1356357227672" y2="5" style="visibility: inherit;" fill="rgb(0, 0, 0)" stroke="rgb(204, 204, 204)" stroke-width="1px"></line><line x1="190.32490834322843" y1="0" x2="190.32490834322843" y2="5" style="visibility: inherit;" fill="rgb(0, 0, 0)" stroke="rgb(204, 204, 204)" stroke-width="1px"></line><line x1="217.51418096368963" y1="0" x2="217.51418096368963" y2="5" style="visibility: inherit;" fill="rgb(0, 0, 0)" stroke="rgb(204, 204, 204)" stroke-width="1px"></line><line x1="244.70345358415085" y1="0" x2="244.70345358415085" y2="5" style="visibility: inherit;" fill="rgb(0, 0, 0)" stroke="rgb(204, 204, 204)" stroke-width="1px"></line><line x1="271.892726204612" y1="0" x2="271.892726204612" y2="5" style="visibility: inherit;" fill="rgb(0, 0, 0)" stroke="rgb(204, 204, 204)" stroke-width="1px"></line><line x1="299.08199882507324" y1="0" x2="299.08199882507324" y2="5" style="visibility: inherit;" fill="rgb(0, 0, 0)" stroke="rgb(204, 204, 204)" stroke-width="1px"></line></g><g transform="translate(0, 8)"><text style="text-anchor: middle; visibility: hidden; font-family: Roboto, sans-serif; font-size: 12px; font-weight: 200;" x="0" y="0" dx="0em" dy="0.95em" fill="rgb(255, 255, 255)" stroke="none" stroke-width="1px">-10</text><text style="text-anchor: middle; visibility: inherit; font-family: Roboto, sans-serif; font-size: 12px; font-weight: 200;" x="27.189272620461203" y="0" dx="0em" dy="0.95em" fill="rgb(255, 255, 255)" stroke="none" stroke-width="1px">0</text><text style="text-anchor: middle; visibility: inherit; font-family: Roboto, sans-serif; font-size: 12px; font-weight: 200;" x="54.378545240922406" y="0" dx="0em" dy="0.95em" fill="rgb(255, 255, 255)" stroke="none" stroke-width="1px">10</text><text style="text-anchor: middle; visibility: inherit; font-family: Roboto, sans-serif; font-size: 12px; font-weight: 200;" x="81.5678178613836" y="0" dx="0em" dy="0.95em" fill="rgb(255, 255, 255)" stroke="none" stroke-width="1px">20</text><text style="text-anchor: middle; visibility: inherit; font-family: Roboto, sans-serif; font-size: 12px; font-weight: 200;" x="108.75709048184481" y="0" dx="0em" dy="0.95em" fill="rgb(255, 255, 255)" stroke="none" stroke-width="1px">30</text><text style="text-anchor: middle; visibility: inherit; font-family: Roboto, sans-serif; font-size: 12px; font-weight: 200;" x="135.946363102306" y="0" dx="0em" dy="0.95em" fill="rgb(255, 255, 255)" stroke="none" stroke-width="1px">40</text><text style="text-anchor: middle; visibility: inherit; font-family: Roboto, sans-serif; font-size: 12px; font-weight: 200;" x="163.1356357227672" y="0" dx="0em" dy="0.95em" fill="rgb(255, 255, 255)" stroke="none" stroke-width="1px">50</text><text style="text-anchor: middle; visibility: inherit; font-family: Roboto, sans-serif; font-size: 12px; font-weight: 200;" x="190.32490834322843" y="0" dx="0em" dy="0.95em" fill="rgb(255, 255, 255)" stroke="none" stroke-width="1px">60</text><text style="text-anchor: middle; visibility: inherit; font-family: Roboto, sans-serif; font-size: 12px; font-weight: 200;" x="217.51418096368963" y="0" dx="0em" dy="0.95em" fill="rgb(255, 255, 255)" stroke="none" stroke-width="1px">70</text><text style="text-anchor: middle; visibility: inherit; font-family: Roboto, sans-serif; font-size: 12px; font-weight: 200;" x="244.70345358415085" y="0" dx="0em" dy="0.95em" fill="rgb(255, 255, 255)" stroke="none" stroke-width="1px">80</text><text style="text-anchor: middle; visibility: inherit; font-family: Roboto, sans-serif; font-size: 12px; font-weight: 200;" x="271.892726204612" y="0" dx="0em" dy="0.95em" fill="rgb(255, 255, 255)" stroke="none" stroke-width="1px">90</text><text style="text-anchor: middle; visibility: hidden; font-family: Roboto, sans-serif; font-size: 12px; font-weight: 200;" x="299.08199882507324" y="0" dx="0em" dy="0.95em" fill="rgb(255, 255, 255)" stroke="none" stroke-width="1px">100</text></g><line x1="0" y1="0" x2="299.08199882507324" y2="0" fill="rgb(0, 0, 0)" stroke="rgb(204, 204, 204)" stroke-width="1px"></line></g></g></g></g></svg>